<?xml version="1.0" encoding="utf-8"?>
<!-- Generator: Adobe Illustrator 15.0.0, SVG Export Plug-In  -->
<!DOCTYPE svg PUBLIC "-//W3C//DTD SVG 1.1//EN" "http://www.w3.org/Graphics/SVG/1.1/DTD/svg11.dtd" [
	<!ENTITY ns_flows "http://ns.adobe.com/Flows/1.0/">
]>
<svg version="1.1"
	 xmlns="http://www.w3.org/2000/svg" xmlns:xlink="http://www.w3.org/1999/xlink" xmlns:a="http://ns.adobe.com/AdobeSVGViewerExtensions/3.0/"
	 x="0px" y="0px" width="1000px" height="1000px" viewBox="-41.869 -55.826 1000 1000"
	 enable-background="new -41.869 -55.826 1000 1000" xml:space="preserve">
<defs>
</defs>
<path fill="#535454" stroke="#FFFFFF" stroke-width="20" stroke-miterlimit="10" d="M906.261,458.127
	c0,247.504-200.639,448.135-448.127,448.135C210.637,906.262,10,705.631,10,458.127C10,210.637,210.637,10,458.134,10
	C705.622,10,906.261,210.637,906.261,458.127z"/>
<path fill="#535454" stroke="#FFFFFF" stroke-width="20" stroke-miterlimit="10" d="M588.804,146.045c0,0,1.063,0.978,3,2.854
	c30.432,29.472,275.127,281.243-39.705,471.542H352.084c0,0-209.184-85.688-119.28-280.272c0,0,48.632-86.071,51.384-132.845
	c0,0,20.189,26.186,22.941,96.356c0,0,138.535-169.106,107.342-268.846c0,0,119.272,44.325,161.485,216.459
	C575.956,251.294,612.661,234.451,588.804,146.045z"/>
<path fill="#535454" stroke="#FFFFFF" stroke-width="20" stroke-miterlimit="10" d="M347.213,608.09h200.933
	c0,0,104.592-160.717-86.245-347.73c0,0,11.93,102.992-46.789,165.674c0,0,3.667-56.126-16.515-85.12
	c0,0-17.43,72.958-44.955,103.839C353.642,444.752,298.59,504.83,347.213,608.09z"/>
<path fill="#535454" stroke="#FFFFFF" stroke-width="20" stroke-miterlimit="10" d="M694.312,816.186
	c-1.582,5.986-7.611,9.531-13.494,7.932L232.855,701.73c-5.874-1.6-9.359-7.76-7.785-13.746l8.875-33.744
	c1.574-5.994,7.604-9.541,13.477-7.934l447.972,122.379c5.873,1.602,9.35,7.758,7.785,13.744L694.312,816.186z"/>
<path fill="#535454" stroke="#FFFFFF" stroke-width="20" stroke-miterlimit="10" d="M703.179,687.984
	c1.564,5.986-1.912,12.146-7.785,13.746L247.422,824.117c-5.873,1.6-11.902-1.945-13.477-7.932l-8.875-33.756
	c-1.574-5.986,1.911-12.143,7.785-13.744l447.962-122.379c5.883-1.607,11.912,1.939,13.494,7.934L703.179,687.984z"/>
</svg>
