<?xml version="1.0" encoding="utf-8"?>
<!-- Generator: Adobe Illustrator 15.0.0, SVG Export Plug-In  -->
<!DOCTYPE svg PUBLIC "-//W3C//DTD SVG 1.1//EN" "http://www.w3.org/Graphics/SVG/1.1/DTD/svg11.dtd" [
	<!ENTITY ns_flows "http://ns.adobe.com/Flows/1.0/">
]>
<svg version="1.1"
	 xmlns="http://www.w3.org/2000/svg" xmlns:xlink="http://www.w3.org/1999/xlink" xmlns:a="http://ns.adobe.com/AdobeSVGViewerExtensions/3.0/"
	 x="0px" y="0px" width="1000px" height="1000px" viewBox="-43.112 -43.103 1000 1000"
	 enable-background="new -43.112 -43.103 1000 1000" xml:space="preserve">
<defs>
</defs>
<path fill="#535454" stroke="#FFFFFF" stroke-width="20" stroke-miterlimit="10" d="M903.776,456.893
	c0,246.807-200.067,446.901-446.884,446.901S10,703.7,10,456.893C10,210.084,210.076,10,456.893,10S903.776,210.084,903.776,456.893
	z"/>
<path fill="#535454" stroke="#FFFFFF" stroke-width="20" stroke-miterlimit="10" d="M264.301,659.569
	c0,5.09-4.119,9.219-9.209,9.219h-38.235c-5.099,0-9.218-4.129-9.218-9.219V417.053c0-5.09,4.119-9.218,9.218-9.218h38.235
	c5.09,0,9.209,4.128,9.209,9.218V659.569z"/>
<path fill="#535454" stroke="#FFFFFF" stroke-width="20" stroke-miterlimit="10" d="M223.602,611.19
	c-8.814,0-15.963-4.129-15.963-9.217v-38.229c0-5.098,7.148-9.217,15.963-9.217H643.7c8.813,0,15.963,4.137,15.963,9.217v38.229
	c0,5.088-7.149,9.217-15.963,9.217H223.602z"/>
<path fill="#535454" stroke="#FFFFFF" stroke-width="20" stroke-miterlimit="10" d="M664.427,663.321
	c0,4.008-4.12,7.242-9.218,7.242h-38.218c-5.089,0-9.218-3.234-9.218-7.242V472.667c0-4,4.129-7.234,9.218-7.234h38.218
	c5.098,0,9.218,3.234,9.218,7.234V663.321z"/>
<path fill="#535454" stroke="#FFFFFF" stroke-width="20" stroke-miterlimit="10" d="M348.581,512.756
	c0,19.645-15.938,35.592-35.601,35.592c-19.646,0-35.583-15.947-35.583-35.592c0-19.662,15.938-35.592,35.583-35.592
	C332.643,477.165,348.581,493.094,348.581,512.756z"/>
<path fill="#535454" stroke="#FFFFFF" stroke-width="20" stroke-miterlimit="10" d="M581.982,510.465
	c0-4.225-3.433-7.674-7.664-7.674h-193.21c-4.239,0-7.673,3.449-7.673,7.674v26.039c0,4.24,3.434,7.689,7.673,7.689h193.21
	c4.231,0,7.664-3.449,7.664-7.689V510.465z"/>
<path fill="#535454" stroke="#FFFFFF" stroke-width="20" stroke-miterlimit="10" d="M168.553,412.436
	c3.598,3.596,11.381,1.647,17.396-4.36l254.396-254.403c6.008-6.008,7.964-13.801,4.359-17.389l-20.289-20.307
	c-3.596-3.587-11.389-1.639-17.396,4.369L152.615,374.741c-6.008,6.016-7.964,13.81-4.359,17.405L168.553,412.436z"/>
<path fill="#535454" stroke="#FFFFFF" stroke-width="20" stroke-miterlimit="10" d="M403.611,149.896
	c-3.604,3.604-1.459,11.569,4.773,17.817l264.066,264.059c6.231,6.239,14.205,8.386,17.817,4.781l20.289-20.29
	c3.597-3.604,1.459-11.586-4.789-17.817l-264.05-264.066c-6.248-6.232-14.221-8.377-17.809-4.773L403.611,149.896z"/>
</svg>
