<?xml version="1.0" encoding="utf-8"?>
<!-- Generator: Adobe Illustrator 15.0.0, SVG Export Plug-In . SVG Version: 6.00 Build 0)  -->
<!DOCTYPE svg PUBLIC "-//W3C//DTD SVG 1.1//EN" "http://www.w3.org/Graphics/SVG/1.1/DTD/svg11.dtd">
<svg version="1.1" id="Capa_1" xmlns="http://www.w3.org/2000/svg" xmlns:xlink="http://www.w3.org/1999/xlink" x="0px" y="0px"
	 width="1000px" height="1000px" viewBox="0 0 1000 1000" enable-background="new 0 0 1000 1000" xml:space="preserve">
<path fill="#535454" stroke="#FFFFFF" stroke-width="20" stroke-miterlimit="10" d="M903.776,456.893
	c0,246.808-200.067,446.901-446.885,446.901C210.075,903.794,10,703.7,10,456.893C10,210.084,210.076,10,456.893,10
	C703.71,10,903.776,210.084,903.776,456.893z"/>
<path fill="#535454" stroke="#FFFFFF" stroke-width="20" stroke-miterlimit="10" d="M264.301,664.569
	c0,5.09-4.119,9.219-9.209,9.219h-38.235c-5.099,0-9.218-4.129-9.218-9.219V422.053c0-5.09,4.119-9.218,9.218-9.218h38.235
	c5.09,0,9.209,4.128,9.209,9.218V664.569z"/>
<path fill="#535454" stroke="#FFFFFF" stroke-width="20" stroke-miterlimit="10" d="M279.193,611.19
	c-8.036,0-14.554-4.13-14.554-9.218v-38.229c0-5.099,6.517-9.217,14.554-9.217h383.025c8.035,0,14.555,4.137,14.555,9.217v38.229
	c0,5.089-6.519,9.218-14.555,9.218H279.193z"/>
<path fill="#535454" stroke="#FFFFFF" stroke-width="20" stroke-miterlimit="10" d="M726.427,667.321
	c0,4.008-4.12,7.242-9.218,7.242h-38.218c-5.089,0-9.218-3.234-9.218-7.242V476.667c0-4,4.129-7.234,9.218-7.234h38.218
	c5.098,0,9.218,3.234,9.218,7.234V667.321z"/>
<path fill="#535454" stroke="#FFFFFF" stroke-width="20" stroke-miterlimit="10" d="M354.581,512.756
	c0,19.646-15.938,35.592-35.601,35.592c-19.646,0-35.583-15.946-35.583-35.592c0-19.662,15.938-35.592,35.583-35.592
	C338.643,477.165,354.581,493.094,354.581,512.756z"/>
<path fill="#535454" stroke="#FFFFFF" stroke-width="20" stroke-miterlimit="10" d="M589.982,510.465
	c0-4.225-3.434-7.674-7.664-7.674h-193.21c-4.239,0-7.674,3.449-7.674,7.674v26.039c0,4.24,3.435,7.689,7.674,7.689h193.21
	c4.23,0,7.664-3.449,7.664-7.689V510.465z"/>
<path fill="#535454" stroke="#FFFFFF" stroke-width="20" stroke-miterlimit="10" d="M201.553,412.436
	c3.598,3.596,11.381,1.647,17.396-4.36l254.396-254.403c6.008-6.008,7.964-13.801,4.359-17.389l-20.289-20.307
	c-3.596-3.587-11.389-1.639-17.396,4.369L185.615,374.741c-6.008,6.016-7.964,13.81-4.359,17.405L201.553,412.436z"/>
<path fill="#535454" stroke="#FFFFFF" stroke-width="20" stroke-miterlimit="10" d="M437.611,136.896
	c-3.604,3.604-1.459,11.569,4.772,17.817l264.066,264.06c6.23,6.238,14.205,8.386,17.816,4.78l20.289-20.29
	c3.598-3.604,1.459-11.586-4.789-17.817L475.717,121.38c-6.248-6.232-14.221-8.377-17.809-4.773L437.611,136.896z"/>
</svg>
