<?xml version="1.0" encoding="utf-8"?>
<!-- Generator: Adobe Illustrator 15.0.0, SVG Export Plug-In  -->
<!DOCTYPE svg PUBLIC "-//W3C//DTD SVG 1.1//EN" "http://www.w3.org/Graphics/SVG/1.1/DTD/svg11.dtd" [
	<!ENTITY ns_flows "http://ns.adobe.com/Flows/1.0/">
]>
<svg version="1.1"
	 xmlns="http://www.w3.org/2000/svg" xmlns:xlink="http://www.w3.org/1999/xlink" xmlns:a="http://ns.adobe.com/AdobeSVGViewerExtensions/3.0/"
	 x="0px" y="0px" width="1000px" height="1000px" viewBox="-54.04 -50.038 1000 1000"
	 enable-background="new -54.04 -50.038 1000 1000" xml:space="preserve">
<defs>
</defs>
<path fill="#535454" stroke="#FFFFFF" stroke-width="20" stroke-miterlimit="10" d="M889.925,449.966
	c0,242.98-196.979,439.959-439.969,439.959C206.979,889.925,10,692.947,10,449.966C10,206.978,206.979,10,449.957,10
	C692.947,10,889.925,206.978,889.925,449.966z"/>
<polygon fill="#535454" stroke="#FFFFFF" stroke-width="20" stroke-miterlimit="10" points="449.962,701.242 717.3,701.242 
	717.3,662.683 665.89,662.683 665.89,532.548 686.455,548.292 707.019,521.945 583.63,433.581 583.63,368.996 606.445,391.167 
	629.259,370.603 458.638,185.521 458.638,155.639 485.306,155.639 485.306,134.109 458.316,134.109 458.316,109.368 
	449.962,109.368 "/>
<polygon fill="#535454" stroke="#FFFFFF" stroke-width="20" stroke-miterlimit="10" points="449.962,701.242 182.622,701.242 
	182.622,662.683 234.033,662.683 234.033,532.548 213.469,548.292 192.904,521.945 316.292,433.581 316.292,368.996 
	293.479,391.167 270.664,370.603 441.286,185.521 441.286,155.639 414.615,155.639 414.615,134.109 441.606,134.109 
	441.606,109.368 449.962,109.368 "/>
<rect x="437.962" y="109.368" fill="#535454" width="25" height="588.125"/>
<path fill="#535454" stroke="#FFFFFF" stroke-width="20" stroke-miterlimit="10" d="M497.603,361.928
	c0,28.563-23.152,51.71-51.714,51.71c-28.558,0-51.707-23.147-51.707-51.71c0-28.56,23.149-51.708,51.707-51.708
	C474.451,310.22,497.603,333.368,497.603,361.928z"/>
<path fill="#535454" stroke="#FFFFFF" stroke-width="20" stroke-miterlimit="10" d="M401.842,697.494H499.3V558.857
	c0,0-20.479-32.941-47.988-34.313c-27.507-1.373-46.724,28.822-49.47,37.057C399.098,569.841,401.842,697.494,401.842,697.494z"/>
<rect x="418.462" y="133.437" fill="#535454" width="62.5" height="17.646"/>
</svg>
