<?xml version="1.0" encoding="utf-8"?>
<!-- Generator: Adobe Illustrator 15.0.0, SVG Export Plug-In . SVG Version: 6.00 Build 0)  -->
<!DOCTYPE svg PUBLIC "-//W3C//DTD SVG 1.1//EN" "http://www.w3.org/Graphics/SVG/1.1/DTD/svg11.dtd">
<svg version="1.1" id="Capa_1" xmlns="http://www.w3.org/2000/svg" xmlns:xlink="http://www.w3.org/1999/xlink" x="0px" y="0px"
	 width="1000px" height="1000px" viewBox="0 0 1000 1000" enable-background="new 0 0 1000 1000" xml:space="preserve">
<path fill="#535454" stroke="#FFFFFF" stroke-width="20" stroke-miterlimit="10" d="M910.5,455.189
	c0,245.861-201.584,445.177-450.25,445.177C211.583,900.366,10,701.052,10,455.189C10,209.313,211.583,10,460.25,10
	C708.916,10,910.5,209.313,910.5,455.189z"/>
<path fill="#535454" stroke="#FFFFFF" stroke-width="20" stroke-miterlimit="10" d="M461.063,704.396
	c0,0,175.164-222.916,176.513-289.148c1.34-66.239-35.396-141.249-88.256-161.06c-52.845-19.815-97.302-28.734-168.429-9.626
	s-107.508,113.365-95.414,173.232C297.578,477.661,461.063,704.396,461.063,704.396z"/>
<path fill="#535454" stroke="#FFFFFF" stroke-width="20" stroke-miterlimit="10" d="M534.584,379.461
	c0,38.697-33.078,70.054-73.905,70.054s-73.916-31.356-73.916-70.054c0-38.692,33.088-70.058,73.916-70.058
	C501.506,309.404,534.584,340.769,534.584,379.461z"/>
</svg>
