<?xml version="1.0" encoding="utf-8"?>
<!-- Generator: Adobe Illustrator 15.0.0, SVG Export Plug-In . SVG Version: 6.00 Build 0)  -->
<!DOCTYPE svg PUBLIC "-//W3C//DTD SVG 1.1//EN" "http://www.w3.org/Graphics/SVG/1.1/DTD/svg11.dtd">
<svg version="1.1" id="Capa_1" xmlns="http://www.w3.org/2000/svg" xmlns:xlink="http://www.w3.org/1999/xlink" x="0px" y="0px"
	 width="1000px" height="1000px" viewBox="0 0 1000 1000" enable-background="new 0 0 1000 1000" xml:space="preserve">
<image overflow="visible" width="100" height="100" xlink:href="A1EA2B6D.jpg"  transform="matrix(5.8 0 0 6.0297 -650.2808 370.9863)">
</image>
<path fill="#535454" stroke="#FFFFFF" stroke-width="20" stroke-miterlimit="10" d="M916.152,470.673
	c0,246.809-200.067,446.901-446.885,446.901c-246.816,0-446.892-200.094-446.892-446.901c0-246.809,200.076-446.893,446.893-446.893
	C716.086,23.78,916.152,223.864,916.152,470.673z"/>
<path fill="#535454" stroke="#FFFFFF" stroke-width="20" stroke-miterlimit="10" d="M828.709,469.634
	c0,197.251-160.477,357.153-358.444,357.153c-197.959,0-358.444-159.902-358.444-357.153c0-197.239,160.485-357.134,358.444-357.134
	C668.232,112.5,828.709,272.395,828.709,469.634z"/>
<polygon fill="#535454" stroke="#FFFFFF" stroke-width="20" stroke-miterlimit="10" points="-910.339,234.513 -881.841,234.513 
	-881.841,342.508 -866.842,354.507 -853.342,341.008 -853.342,228.513 -824.844,228.513 -824.844,342.508 -806.845,354.507 
	-796.345,338.008 -796.345,228.513 -766.347,228.513 -766.347,401.005 -784.346,428.003 -805.345,428.003 -800.845,759.486 
	-823.344,771.486 -856.342,771.486 -880.341,757.986 -875.841,422.004 -895.34,422.004 -910.339,401.005 "/>
<path fill="#535454" stroke="#FFFFFF" stroke-width="20" stroke-miterlimit="10" d="M1707.029,651.083"/>
<path fill="#535454" stroke="#FFFFFF" stroke-width="20" stroke-miterlimit="10" d="M279.799,753.856
	c0,0,60.673,67.113,128.604-2.496c0,0-52.425-343.987-11.145-342.567c41.277,1.42,53.83,0.648,51.461-72.17
	c-2.371-72.804,0.82-141.362-5.557-171.018c-6.377-29.656-38.792-41.602-51.434,0.998l0.218,150.8c0,0-25.581,21.621-35.452-10.651
	s16.584-105.134-4.521-139.368c-21.107-34.233-41.103-27.406-56.052,2.764c-14.951,30.169,14.271,145.78,2.725,155.841
	c-11.548,10.062-32.29,14.178-34.507-53.55c-2.195-67.737-3.179-68.914-3.24-99.903c-0.061-30.989-42.547-37.476-44.42,0.856
	c-1.873,38.333-12.707,205.264,23.519,229.978c0,0,42.537,2.564,56.729,7.373C310.921,415.55,279.799,753.856,279.799,753.856z"/>
<path fill="#535454" stroke="#FFFFFF" stroke-width="20" stroke-miterlimit="10" d="M682.016,720.574c0-169.21,0-569.823,0-569.823
	s-77.455-43.834-119.866,25.29c-42.418,69.124-23.977,338.862,22.122,337.182c0,0,4.273,200.771,5.544,218.39
	C591.086,749.23,666.082,794.413,682.016,720.574z"/>
</svg>
